<svg width="125" height="125" viewBox="0 0 125 125" fill="none" xmlns="http://www.w3.org/2000/svg">
<g clip-path="url(#clip0_64_1227)">
<path d="M53.4671 26.7902L26.7335 0.00390625L0 26.7902V53.5725H53.4671V26.7902Z" fill="black"/>
<path d="M71.2868 71.4274L98.0204 98.2137L124.754 71.4274V125H71.2868V71.4274Z" fill="black"/>
<path d="M53.4671 71.4274H0V125H53.4671V71.4274Z" fill="black"/>
<path d="M71.2868 0H82.017V2.36396H77.9585V12.8217H75.3297V2.36396H71.2868V0Z" fill="black"/>
<path d="M83.9778 12.8217V0H86.6106V4.80227H92.3838V0H95.0009V12.8217H92.3838V7.19754H86.6106V12.8217H83.9778Z" fill="black"/>
<path d="M97.3329 12.8217V0H106.93V2.36396H99.9656V4.83358H105.415V7.16231H99.9656V10.4617H106.93V12.8217H97.3329Z" fill="black"/>
<path d="M111.946 0H124.742V4.80227C124.742 6.87269 124.141 8.57521 122.953 9.89026C122.353 10.5096 121.635 11.002 120.842 11.3382C120.048 11.6744 119.196 11.8477 118.334 11.8477C117.473 11.8477 116.62 11.6744 115.827 11.3382C115.033 11.002 114.315 10.5096 113.715 9.89026C112.543 8.58695 111.946 6.88443 111.946 4.80227V0ZM114.289 2.64184V4.57918C114.289 7.4402 115.789 9.12314 118.332 9.12314C120.875 9.12314 122.383 7.43628 122.383 4.57918V2.64184H114.289Z" fill="black"/>
<path d="M123.063 15.6553C123.701 16.2691 124.205 17.0099 124.541 17.8301C124.878 18.6504 125.039 19.532 125.016 20.4185C125.038 21.3019 124.876 22.1802 124.539 22.9971C124.203 23.814 123.7 24.5514 123.063 25.162C121.795 26.3847 120.104 27.0676 118.344 27.0676C116.584 27.0676 114.893 26.3847 113.625 25.162C112.988 24.5514 112.485 23.814 112.148 22.9971C111.812 22.1802 111.65 21.3019 111.672 20.4185C111.649 19.532 111.81 18.6504 112.147 17.8301C112.483 17.0099 112.987 16.2691 113.625 15.6553C114.898 14.4417 116.587 13.7648 118.344 13.7648C120.101 13.7648 121.79 14.4417 123.063 15.6553ZM114.157 20.4302C114.143 20.9561 114.24 21.4789 114.442 21.9645C114.644 22.4501 114.946 22.8875 115.328 23.2482C116.157 23.9793 117.223 24.3827 118.326 24.3827C119.43 24.3827 120.496 23.9793 121.324 23.2482C121.711 22.8898 122.017 22.4532 122.222 21.9674C122.427 21.4816 122.528 20.9577 122.516 20.4302C122.528 19.8992 122.429 19.3715 122.223 18.8818C122.018 18.392 121.712 17.9514 121.324 17.5888C120.491 16.8692 119.427 16.4734 118.326 16.4734C117.226 16.4734 116.162 16.8692 115.328 17.5888C114.945 17.9536 114.643 18.3951 114.441 18.8846C114.239 19.3741 114.142 19.9007 114.157 20.4302Z" fill="black"/>
<path d="M111.946 29.4594H124.742V32.0778L119.438 35.7998L124.742 39.514V42.1167H111.946V39.514H120.703L116.586 36.5669V35.1032L120.703 32.0973H111.946V29.4594Z" fill="black"/>
</g>
<defs>
<clipPath id="clip0_64_1227">
<rect width="125" height="125" fill="white"/>
</clipPath>
</defs>
</svg>
