<svg width="125" height="41" viewBox="0 0 125 41" fill="none" xmlns="http://www.w3.org/2000/svg">
<path d="M35.8704 28.7412H34.5961C34.5599 28.7409 34.5239 28.7478 34.4904 28.7616C34.4569 28.7753 34.4264 28.7955 34.4008 28.8211C34.3752 28.8468 34.3549 28.8773 34.3412 28.9108C34.3275 28.9443 34.3205 28.9803 34.3209 29.0165V40.6622C34.323 40.7304 34.3513 40.7951 34.4 40.8429C34.4486 40.8907 34.5139 40.9179 34.5821 40.9187H35.854C35.924 40.9203 35.9917 40.8943 36.0426 40.8463C36.0934 40.7983 36.1233 40.7321 36.1258 40.6622V29.0165C36.128 28.9462 36.1024 28.878 36.0546 28.8264C36.0068 28.7749 35.9406 28.7443 35.8704 28.7412Z" fill="black"/>
<path d="M76.2997 28.7413H75.0265C74.9903 28.741 74.9544 28.748 74.9209 28.7617C74.8873 28.7754 74.8568 28.7956 74.8312 28.8213C74.8056 28.8469 74.7853 28.8774 74.7716 28.9109C74.7579 28.9444 74.751 28.9804 74.7513 29.0166V40.6623C74.7534 40.7301 74.7814 40.7945 74.8296 40.8422C74.8777 40.89 74.9424 40.9174 75.0101 40.9188H76.2845C76.3541 40.9198 76.4214 40.8936 76.4719 40.8456C76.5225 40.7977 76.5523 40.7319 76.555 40.6623V29.0166C76.5567 28.9467 76.531 28.8789 76.4836 28.8276C76.4362 28.7762 76.3695 28.7453 76.2997 28.7413Z" fill="black"/>
<path d="M48.9837 28.7413H38.0583C37.9878 28.7444 37.9213 28.7749 37.8729 28.8263C37.8245 28.8777 37.7982 28.946 37.7995 29.0166V30.0133C37.801 30.0816 37.8287 30.1467 37.8769 30.1951C37.9251 30.2436 37.99 30.2716 38.0583 30.2733H42.6192V40.6623C42.6209 40.7296 42.6484 40.7936 42.6958 40.8413C42.7433 40.889 42.8073 40.9168 42.8745 40.9188H44.1488C44.2192 40.9207 44.2875 40.8949 44.339 40.847C44.3905 40.799 44.421 40.7327 44.4241 40.6623V30.2733H48.9837C49.0518 30.271 49.1165 30.2428 49.1646 30.1945C49.2127 30.1462 49.2406 30.0815 49.2426 30.0133V29.0166C49.2436 28.9461 49.2172 28.878 49.1689 28.8266C49.1206 28.7753 49.0542 28.7447 48.9837 28.7413Z" fill="black"/>
<path d="M51.9985 36.6368L54.3469 30.6845L56.6964 36.6368H51.9985ZM59.9045 40.6636L55.312 28.9979C55.28 28.9163 55.2224 28.8472 55.1479 28.8009C55.0734 28.7547 54.9859 28.7338 54.8986 28.7414H53.7964C53.7096 28.7335 53.6226 28.7543 53.5487 28.8007C53.4749 28.847 53.4183 28.9163 53.3876 28.9979L48.7928 40.6636C48.7413 40.8205 48.8584 40.9201 48.999 40.9201H50.032C50.2733 40.9201 50.3389 40.8345 50.4279 40.6307L51.3954 38.1711H57.2996L58.2671 40.6307C58.3561 40.8345 58.4252 40.9201 58.6665 40.9201H59.6995C59.7322 40.9241 59.7653 40.9196 59.7957 40.9072C59.8261 40.8947 59.8528 40.8746 59.8733 40.8489C59.8937 40.8232 59.9072 40.7926 59.9125 40.7601C59.9178 40.7277 59.9158 40.6944 59.9045 40.6636Z" fill="black"/>
<path d="M82.7603 36.6368L85.1028 30.6845L87.4559 36.6368H82.7603ZM90.6662 40.6636L86.0738 28.9979C86.0418 28.9163 85.9842 28.8472 85.9097 28.8009C85.8352 28.7547 85.7477 28.7338 85.6603 28.7414H84.5547C84.4679 28.7344 84.3811 28.7556 84.3073 28.8018C84.2334 28.848 84.1764 28.9168 84.1447 28.9979L79.5499 40.6636C79.5399 40.695 79.538 40.7285 79.5443 40.7609C79.5505 40.7933 79.5647 40.8236 79.5857 40.849C79.6066 40.8745 79.6336 40.8944 79.6642 40.9068C79.6948 40.9192 79.7279 40.9238 79.7607 40.9201H80.7938C81.028 40.9201 81.1042 40.8346 81.1897 40.6308L82.1571 38.1712H88.0614L89.0324 40.6308C89.119 40.8346 89.1881 40.9201 89.4247 40.9201H90.4578C90.596 40.9201 90.719 40.8205 90.6639 40.6636" fill="black"/>
<path d="M71.4144 39.3904H64.6703V29.0166C64.6705 28.9801 64.6634 28.944 64.6494 28.9103C64.6354 28.8766 64.6148 28.846 64.5888 28.8204C64.5629 28.7948 64.532 28.7746 64.4982 28.761C64.4643 28.7474 64.4281 28.7407 64.3916 28.7414H63.1032C63.0327 28.7441 62.9661 28.7746 62.9178 28.8261C62.8696 28.8776 62.8436 28.9461 62.8455 29.0166V40.6624C62.8473 40.73 62.8751 40.7944 62.923 40.8422C62.971 40.89 63.0355 40.9174 63.1032 40.9189H71.4191C71.4893 40.9202 71.5572 40.8942 71.6086 40.8463C71.6599 40.7985 71.6907 40.7325 71.6943 40.6624V39.6668C71.6937 39.5943 71.6644 39.525 71.6128 39.4741C71.5612 39.4232 71.4916 39.3948 71.4191 39.3951" fill="black"/>
<path d="M82.7709 20.8823C82.6769 20.8836 82.5836 20.866 82.4966 20.8306C82.4095 20.7952 82.3305 20.7426 82.2641 20.6761C82.1977 20.6096 82.1453 20.5305 82.11 20.4434C82.0748 20.3563 82.0573 20.263 82.0587 20.169V18.7741C82.0587 18.4883 82.1442 18.3196 82.6854 17.6356L93.7935 3.39086H83.2265C83.0459 3.38783 82.8736 3.3146 82.7462 3.18669C82.6187 3.05878 82.546 2.88625 82.5436 2.70569V1.42549C82.5408 1.24069 82.6108 1.06223 82.7387 0.928722C82.8665 0.795215 83.0417 0.717437 83.2265 0.712222H97.3002C97.3942 0.710958 97.4874 0.728529 97.5745 0.763943C97.6615 0.799357 97.7406 0.851887 97.807 0.918392C97.8734 0.984896 97.9258 1.06405 97.9611 1.15116C97.9963 1.23826 98.0138 1.33152 98.0123 1.42549V2.53701C98.0123 2.82045 97.9268 2.99148 97.3857 3.67549L86.0468 18.2049H97.3002C97.3941 18.2036 97.4873 18.2212 97.5742 18.2565C97.6612 18.2918 97.7402 18.3443 97.8066 18.4106C97.873 18.477 97.9254 18.556 97.9607 18.643C97.996 18.7299 98.0136 18.8231 98.0123 18.917V20.1971C98.0077 20.3821 97.9304 20.5578 97.7971 20.686C97.6637 20.8143 97.4852 20.8849 97.3002 20.8823H82.7709Z" fill="black"/>
<path d="M102.116 20.8823C102.022 20.8838 101.929 20.8663 101.842 20.8309C101.755 20.7956 101.675 20.7431 101.609 20.6766C101.542 20.61 101.49 20.5308 101.455 20.4437C101.419 20.3565 101.402 20.2631 101.403 20.169V18.7741C101.403 18.4883 101.489 18.3196 102.026 17.6356L113.141 3.39086H102.569C102.389 3.38581 102.217 3.31196 102.09 3.18447C101.963 3.05699 101.89 2.88561 101.886 2.70569V1.42549C101.883 1.24069 101.953 1.06223 102.081 0.928722C102.209 0.795215 102.384 0.717437 102.569 0.712222H116.642C116.736 0.710958 116.83 0.728529 116.917 0.763943C117.004 0.799357 117.083 0.851887 117.149 0.918392C117.215 0.984896 117.268 1.06405 117.303 1.15116C117.338 1.23826 117.356 1.33152 117.354 1.42549V2.53701C117.354 2.82045 117.269 2.99148 116.728 3.67549L105.389 18.2049H116.642C116.736 18.2036 116.829 18.2212 116.916 18.2565C117.003 18.2918 117.082 18.3443 117.149 18.4106C117.215 18.477 117.267 18.556 117.303 18.643C117.338 18.7299 117.356 18.8231 117.354 18.917V20.1971C117.35 20.3821 117.272 20.5578 117.139 20.686C117.006 20.8143 116.827 20.8849 116.642 20.8823H102.116Z" fill="black"/>
<path d="M121.601 1.42549C121.598 1.24089 121.668 1.06259 121.796 0.929115C121.924 0.795641 122.098 0.717739 122.283 0.712222H124.274C124.368 0.710958 124.461 0.728529 124.548 0.763943C124.635 0.799357 124.715 0.851887 124.781 0.918392C124.847 0.984896 124.9 1.06405 124.935 1.15116C124.97 1.23826 124.988 1.33152 124.986 1.42549V20.1655C124.988 20.2595 124.97 20.3528 124.935 20.4399C124.9 20.527 124.847 20.6061 124.781 20.6726C124.715 20.7391 124.635 20.7917 124.548 20.8271C124.461 20.8625 124.368 20.8801 124.274 20.8788H122.283C122.098 20.8733 121.924 20.7954 121.796 20.6619C121.668 20.5284 121.598 20.3501 121.601 20.1655V1.42549Z" fill="black"/>
<path d="M62.001 1.39977C62.0038 1.21891 62.0771 1.04626 62.2053 0.918692C62.3335 0.791124 62.5065 0.718731 62.6874 0.716919H64.709C64.8896 0.719035 65.0623 0.791585 65.1903 0.919121C65.3183 1.04666 65.3914 1.21912 65.3942 1.39977V14.1055C65.4598 15.3037 65.982 16.4311 66.8534 17.2561C67.7248 18.0811 68.8792 18.5408 70.0792 18.5408C71.2791 18.5408 72.4335 18.0811 73.3049 17.2561C74.1763 16.4311 74.6985 15.3037 74.7642 14.1055V1.39977C74.7672 1.21861 74.8409 1.0458 74.9696 0.918228C75.0982 0.790658 75.2717 0.718421 75.4529 0.716919H77.4721C77.6528 0.718444 77.8258 0.790818 77.9537 0.918514C78.0816 1.04621 78.1543 1.21903 78.1561 1.39977V14.1055C77.9938 16.1362 77.0724 18.0313 75.5756 19.4132C74.0788 20.7951 72.1164 21.5625 70.0792 21.5625C68.042 21.5625 66.0795 20.7951 64.5827 19.4132C63.0859 18.0313 62.1646 16.1362 62.0022 14.1055V1.39977H62.001Z" fill="black"/>
<path d="M30.7497 7.67845e-05C35.2509 7.67845e-05 38.8993 3.30532 38.8993 7.46326V20.1971C38.8972 20.3778 38.8246 20.5505 38.6971 20.6784C38.5696 20.8064 38.3971 20.8796 38.2165 20.8823H36.1914C36.0105 20.8796 35.8378 20.8065 35.7099 20.6786C35.582 20.5507 35.5089 20.378 35.5062 20.1971V13.5901H26.1362V20.1971C26.1316 20.3819 26.0544 20.5573 25.9213 20.6856C25.7882 20.8138 25.61 20.8845 25.4252 20.8823H23.4341C23.253 20.8802 23.08 20.8073 22.952 20.6793C22.8239 20.5512 22.751 20.3782 22.7489 20.1971V7.46326C22.8322 5.41594 23.7195 3.48406 25.2182 2.08683C26.717 0.689608 28.7063 -0.0602044 30.7544 7.67845e-05M35.5109 7.46326C35.4884 6.86116 35.3475 6.26938 35.0963 5.72172C34.845 5.17407 34.4884 4.68127 34.0467 4.27145C33.6051 3.86164 33.087 3.54283 32.5221 3.33325C31.9572 3.12367 31.3565 3.02741 30.7544 3.04998C29.5586 3.02855 28.4027 3.48023 27.5383 4.30673C26.6738 5.13324 26.1707 6.26771 26.1385 7.46326V10.9102H35.5085V7.46326H35.5109Z" fill="black"/>
<path d="M57.4168 0.712158C57.8162 0.712158 58.0715 0.94639 58.0715 1.16893V2.70562C58.0787 2.79483 58.0669 2.88455 58.0369 2.96888C58.0069 3.0532 57.9595 3.13022 57.8977 3.19492C57.8359 3.25962 57.7611 3.31054 57.6782 3.34429C57.5953 3.37805 57.5062 3.39389 57.4168 3.39079H51.5476V20.1959C51.5455 20.3764 51.4731 20.5489 51.3459 20.6768C51.2186 20.8048 51.0464 20.8781 50.866 20.8811H48.8409C48.6603 20.8781 48.488 20.8048 48.3606 20.6769C48.2331 20.549 48.1604 20.3765 48.158 20.1959V3.39079H42.3439C42.1636 3.38746 41.9916 3.31411 41.8644 3.18623C41.7371 3.05835 41.6647 2.88599 41.6623 2.70562V1.39969C41.6647 1.21954 41.7373 1.04744 41.8645 0.919937C41.9918 0.792433 42.1638 0.719568 42.3439 0.716841L57.4168 0.712158Z" fill="black"/>
<path d="M0.693087 0.71215C0.512741 0.714575 0.340459 0.787282 0.212924 0.914817C0.0853883 1.04235 0.0126638 1.21465 0.0102386 1.395V20.1971C0.0123543 20.3777 0.0849048 20.5504 0.212441 20.6784C0.339977 20.8064 0.512435 20.8795 0.693087 20.8823H2.69123C2.87582 20.8842 3.05374 20.8134 3.18655 20.6851C3.31937 20.5569 3.39641 20.3816 3.40102 20.1971V5.92538L14.1145 20.0823C14.2732 20.3428 14.5002 20.555 14.7708 20.6958C15.0415 20.8366 15.3455 20.9007 15.65 20.8811H17.5029C17.6839 20.879 17.857 20.8061 17.985 20.678C18.1131 20.55 18.1859 20.3769 18.1881 20.1959V1.39968C18.1853 1.21903 18.1122 1.04657 17.9842 0.919035C17.8562 0.791499 17.6835 0.718948 17.5029 0.716833H15.4813C15.3008 0.718662 15.1281 0.791194 15.0005 0.918856C14.8728 1.04652 14.8003 1.21915 14.7985 1.39968V15.8447L3.80392 1.51563C3.64882 1.25017 3.42148 1.03423 3.14838 0.893014C2.87528 0.751797 2.56765 0.691118 2.26138 0.718012L0.693087 0.71215Z" fill="black"/>
</svg>
