<svg width="181" height="60" viewBox="0 0 181 60" fill="none" xmlns="http://www.w3.org/2000/svg">
<g clip-path="url(#clip0_64_1374)">
<path d="M51.6574 42.1422H49.822C49.7699 42.1418 49.7181 42.1519 49.6698 42.172C49.6215 42.1922 49.5776 42.2218 49.5407 42.2594C49.5038 42.297 49.4747 42.3417 49.4549 42.3909C49.4351 42.44 49.4252 42.4927 49.4256 42.5458V59.6217C49.4287 59.7217 49.4695 59.8166 49.5396 59.8866C49.6097 59.9567 49.7036 59.9965 49.8018 59.9978H51.6338C51.7345 60.0001 51.832 59.962 51.9053 59.8916C51.9785 59.8212 52.0216 59.7242 52.0251 59.6217V42.5458C52.0283 42.4428 51.9915 42.3427 51.9227 42.2672C51.8538 42.1916 51.7585 42.1467 51.6574 42.1422Z" fill="black"/>
<path d="M109.885 42.1427H108.051C107.999 42.1423 107.947 42.1524 107.899 42.1725C107.851 42.1927 107.807 42.2223 107.77 42.2599C107.733 42.2975 107.704 42.3422 107.684 42.3913C107.665 42.4405 107.655 42.4932 107.655 42.5463V59.6222C107.658 59.7216 107.698 59.816 107.768 59.886C107.837 59.956 107.93 59.9961 108.028 59.9983H109.863C109.963 59.9997 110.06 59.9612 110.133 59.891C110.206 59.8207 110.249 59.7242 110.253 59.6222V42.5463C110.255 42.4438 110.218 42.3444 110.15 42.2691C110.082 42.1938 109.986 42.1485 109.885 42.1427Z" fill="black"/>
<path d="M70.5436 42.1427H54.8085C54.7069 42.1472 54.6111 42.1919 54.5414 42.2673C54.4718 42.3427 54.4338 42.4428 54.4357 42.5463V44.0078C54.4378 44.108 54.4777 44.2034 54.5471 44.2744C54.6165 44.3454 54.7101 44.3864 54.8085 44.3891H61.3772V59.6222C61.3797 59.7208 61.4192 59.8147 61.4876 59.8846C61.556 59.9546 61.6481 59.9952 61.7449 59.9983H63.5802C63.6816 60.0011 63.7799 59.9632 63.8541 59.8929C63.9283 59.8225 63.9723 59.7253 63.9767 59.6222V44.3891H70.5436C70.6417 44.3856 70.7349 44.3443 70.8041 44.2735C70.8734 44.2027 70.9135 44.1077 70.9165 44.0078V42.5463C70.9179 42.4429 70.8798 42.3431 70.8102 42.2678C70.7407 42.1924 70.6451 42.1476 70.5436 42.1427Z" fill="black"/>
<path d="M74.8857 53.7197L78.2679 44.9919L81.6517 53.7197H74.8857ZM86.2721 59.624L79.6578 42.5189C79.6117 42.3992 79.5288 42.2979 79.4215 42.2301C79.3142 42.1623 79.1882 42.1317 79.0624 42.1428H77.475C77.35 42.1312 77.2247 42.1618 77.1183 42.2297C77.012 42.2977 76.9305 42.3993 76.8863 42.5189L70.2687 59.624C70.1944 59.8541 70.3631 60.0001 70.5656 60.0001H72.0534C72.4009 60.0001 72.4953 59.8747 72.6235 59.5759L74.0169 55.9694H82.5205L83.9139 59.5759C84.0421 59.8747 84.1416 60.0001 84.4891 60.0001H85.9769C86.0239 60.0059 86.0716 59.9994 86.1154 59.9812C86.1592 59.9629 86.1977 59.9335 86.2271 59.8957C86.2566 59.858 86.276 59.8132 86.2836 59.7656C86.2912 59.718 86.2883 59.6693 86.2721 59.624Z" fill="black"/>
<path d="M119.19 53.7197L122.564 44.992L125.953 53.7197H119.19ZM130.576 59.6241L123.962 42.519C123.916 42.3993 123.833 42.298 123.726 42.2302C123.618 42.1624 123.492 42.1317 123.367 42.1429H121.774C121.649 42.1326 121.524 42.1637 121.418 42.2315C121.311 42.2992 121.229 42.4 121.184 42.519L114.566 59.6241C114.552 59.6702 114.549 59.7192 114.558 59.7667C114.567 59.8142 114.587 59.8586 114.618 59.896C114.648 59.9334 114.687 59.9625 114.731 59.9807C114.775 59.9989 114.823 60.0056 114.87 60.0002H116.358C116.695 60.0002 116.805 59.8748 116.928 59.5759L118.321 55.9695H126.825L128.223 59.5759C128.348 59.8748 128.447 60.0002 128.788 60.0002H130.276C130.475 60.0002 130.652 59.8542 130.573 59.6241" fill="black"/>
<path d="M102.849 57.7572H93.136V42.5464C93.1362 42.4929 93.126 42.4399 93.1058 42.3904C93.0857 42.341 93.056 42.2962 93.0186 42.2586C92.9812 42.221 92.9369 42.1914 92.8881 42.1715C92.8393 42.1516 92.7871 42.1418 92.7346 42.1428H90.879C90.7774 42.1468 90.6815 42.1914 90.612 42.267C90.5425 42.3425 90.5051 42.4429 90.5079 42.5464V59.6222C90.5104 59.7215 90.5504 59.8159 90.6195 59.8859C90.6886 59.9559 90.7815 59.9962 90.879 59.9983H102.856C102.957 60.0003 103.055 59.9621 103.129 59.8919C103.203 59.8218 103.247 59.725 103.252 59.6222V58.1625C103.251 58.0562 103.209 57.9546 103.135 57.8799C103.061 57.8052 102.96 57.7636 102.856 57.764" fill="black"/>
<path d="M119.205 30.6191C119.07 30.621 118.935 30.5952 118.81 30.5432C118.685 30.4913 118.571 30.4143 118.475 30.3168C118.38 30.2193 118.304 30.1032 118.253 29.9755C118.203 29.8478 118.177 29.711 118.179 29.5732V27.5278C118.179 27.1088 118.303 26.8615 119.082 25.8585L135.08 4.97178H119.861C119.601 4.96734 119.353 4.85997 119.169 4.67241C118.986 4.48486 118.881 4.23189 118.878 3.96713V2.09001C118.874 1.81904 118.975 1.55737 119.159 1.36161C119.343 1.16585 119.595 1.05181 119.861 1.04416H140.131C140.266 1.04231 140.4 1.06807 140.526 1.12C140.651 1.17192 140.765 1.24895 140.861 1.34646C140.956 1.44398 141.032 1.56004 141.083 1.68776C141.133 1.81548 141.158 1.95223 141.156 2.09001V3.71981C141.156 4.13541 141.033 4.38617 140.254 5.38912L123.923 26.6932H140.131C140.266 26.6913 140.4 26.7171 140.525 26.7689C140.651 26.8207 140.764 26.8976 140.86 26.9949C140.956 27.0922 141.031 27.2081 141.082 27.3356C141.133 27.4631 141.158 27.5997 141.156 27.7373V29.6144C141.15 29.8856 141.038 30.1432 140.846 30.3313C140.654 30.5194 140.397 30.6228 140.131 30.6191H119.205Z" fill="black"/>
<path d="M147.067 30.6191C146.932 30.6212 146.797 30.5956 146.672 30.5438C146.546 30.4919 146.432 30.4149 146.336 30.3174C146.24 30.2199 146.165 30.1037 146.114 29.9759C146.063 29.8481 146.038 29.7111 146.04 29.5732V27.5278C146.04 27.1088 146.163 26.8615 146.937 25.8585L162.946 4.97178H147.718C147.459 4.96438 147.213 4.85609 147.03 4.66916C146.847 4.48224 146.741 4.23095 146.735 3.96713V2.09001C146.731 1.81904 146.832 1.55737 147.016 1.36161C147.2 1.16585 147.452 1.05181 147.718 1.04416H167.988C168.123 1.04231 168.258 1.06807 168.383 1.12C168.508 1.17192 168.622 1.24895 168.718 1.34646C168.813 1.44398 168.889 1.56004 168.94 1.68776C168.99 1.81548 169.016 1.95223 169.013 2.09001V3.71981C169.013 4.13541 168.89 4.38617 168.111 5.38912L151.78 26.6932H167.988C168.123 26.6913 168.257 26.7171 168.383 26.7689C168.508 26.8207 168.622 26.8976 168.717 26.9949C168.813 27.0922 168.888 27.2081 168.939 27.3356C168.99 27.4631 169.015 27.5997 169.013 27.7373V29.6144C169.007 29.8856 168.895 30.1432 168.703 30.3313C168.511 30.5194 168.254 30.6228 167.988 30.6191H147.067Z" fill="black"/>
<path d="M175.13 2.09001C175.126 1.81933 175.227 1.5579 175.41 1.36219C175.594 1.16648 175.846 1.05225 176.112 1.04416H178.98C179.115 1.04231 179.249 1.06807 179.375 1.12C179.5 1.17192 179.614 1.24895 179.709 1.34646C179.805 1.44398 179.881 1.56004 179.931 1.68776C179.982 1.81548 180.007 1.95223 180.005 2.09001V29.568C180.007 29.7058 179.982 29.8426 179.931 29.9703C179.881 30.0981 179.805 30.2141 179.709 30.3116C179.614 30.4091 179.5 30.4862 179.375 30.5381C179.249 30.59 179.115 30.6158 178.98 30.6139H176.112C175.846 30.6058 175.594 30.4916 175.41 30.2959C175.227 30.1002 175.126 29.8387 175.13 29.568V2.09001Z" fill="black"/>
<path d="M89.2916 2.05239C89.2956 1.78721 89.4011 1.53405 89.5858 1.347C89.7705 1.15995 90.0196 1.0538 90.2801 1.05115H93.1917C93.4519 1.05425 93.7006 1.16063 93.8849 1.34763C94.0692 1.53464 94.1746 1.78751 94.1785 2.05239V20.6825C94.2731 22.4393 95.0252 24.0925 96.2802 25.3021C97.5352 26.5118 99.1978 27.1859 100.926 27.1859C102.654 27.1859 104.317 26.5118 105.572 25.3021C106.827 24.0925 107.579 22.4393 107.674 20.6825V2.05239C107.678 1.78676 107.784 1.53337 107.969 1.34632C108.155 1.15927 108.404 1.05335 108.665 1.05115H111.574C111.834 1.05338 112.083 1.1595 112.267 1.34674C112.451 1.53398 112.556 1.78739 112.559 2.05239V20.6825C112.325 23.6601 110.998 26.4387 108.842 28.465C106.686 30.4913 103.86 31.6166 100.926 31.6166C97.992 31.6166 95.1656 30.4913 93.0098 28.465C90.854 26.4387 89.5271 23.6601 89.2933 20.6825V2.05239H89.2916Z" fill="black"/>
<path d="M44.2824 0.000184541C50.765 0.000184541 56.0196 4.84659 56.0196 10.9433V29.6146C56.0166 29.8795 55.9121 30.1327 55.7284 30.3204C55.5447 30.508 55.2964 30.6153 55.0362 30.6193H52.1196C51.8591 30.6153 51.6104 30.5081 51.4261 30.3206C51.2419 30.133 51.1367 29.8798 51.1328 29.6146V19.9269H37.6377V29.6146C37.6311 29.8855 37.5199 30.1428 37.3283 30.3309C37.1366 30.5189 36.88 30.6225 36.6138 30.6193H33.7461C33.4853 30.6161 33.2361 30.5093 33.0517 30.3216C32.8673 30.1338 32.7624 29.8801 32.7593 29.6146V10.9433C32.8792 7.94133 34.1572 5.10866 36.3157 3.05994C38.4743 1.01123 41.3393 -0.0882043 44.2891 0.000184541M51.1395 10.9433C51.1071 10.0604 50.9042 9.19271 50.5424 8.38969C50.1806 7.58668 49.667 6.86411 49.0308 6.2632C48.3947 5.6623 47.6485 5.19484 46.8349 4.88754C46.0214 4.58024 45.1563 4.43909 44.2891 4.47219C42.5669 4.44076 40.9021 5.10304 39.6571 6.31493C38.4121 7.52682 37.6875 9.19026 37.6411 10.9433V15.9975H51.1361V10.9433H51.1395Z" fill="black"/>
<path d="M82.6892 1.04419C83.2644 1.04419 83.6322 1.38764 83.6322 1.71394V3.96716C83.6425 4.09796 83.6255 4.22951 83.5823 4.35316C83.5392 4.47681 83.4709 4.58973 83.3818 4.6846C83.2928 4.77947 83.185 4.85413 83.0657 4.90362C82.9463 4.95312 82.818 4.97634 82.6892 4.97181H74.2362V29.6127C74.2332 29.8773 74.129 30.1303 73.9456 30.3179C73.7623 30.5055 73.5144 30.613 73.2545 30.6174H70.3379C70.0778 30.613 69.8297 30.5056 69.6461 30.3181C69.4625 30.1305 69.3579 29.8775 69.3544 29.6127V4.97181H60.9807C60.721 4.96693 60.4733 4.85937 60.29 4.67187C60.1068 4.48436 60.0024 4.23163 59.999 3.96716V2.0523C60.0025 1.78816 60.107 1.5358 60.2903 1.34885C60.4736 1.16189 60.7213 1.05505 60.9807 1.05106L82.6892 1.04419Z" fill="black"/>
<path d="M0.993702 1.04423C0.733961 1.04778 0.485834 1.15439 0.302153 1.34139C0.118472 1.52839 0.0137314 1.78103 0.0102386 2.04547V29.6145C0.0132857 29.8794 0.117776 30.1326 0.301458 30.3202C0.48514 30.5079 0.73352 30.6152 0.993702 30.6192H3.8715C4.13736 30.622 4.3936 30.5181 4.58488 30.3301C4.77616 30.1422 4.88713 29.8851 4.89376 29.6145V8.68825L20.3236 29.4462C20.5523 29.8282 20.8792 30.1393 21.269 30.3457C21.6588 30.5522 22.0966 30.6461 22.5351 30.6175H25.2038C25.4645 30.6143 25.7138 30.5075 25.8982 30.3197C26.0826 30.132 26.1875 29.8782 26.1906 29.6128V2.05234C26.1867 1.78745 26.0813 1.53458 25.897 1.34758C25.7127 1.16057 25.464 1.05419 25.2038 1.05109H22.2922C22.0322 1.05378 21.7836 1.16013 21.5997 1.34731C21.4159 1.5345 21.3114 1.78763 21.3088 2.05234V23.2327L5.47403 2.22236C5.25065 1.83311 4.92323 1.51648 4.5299 1.30942C4.13657 1.10236 3.69352 1.01339 3.25241 1.05282L0.993702 1.04423Z" fill="black"/>
</g>
<defs>
<clipPath id="clip0_64_1374">
<rect width="180" height="60" fill="white" transform="translate(0.0102386)"/>
</clipPath>
</defs>
</svg>
